<svg xmlns="http://www.w3.org/2000/svg">
  <symbol id="cmm-icon-menu" viewBox="0 0 24 24"><path d="M4 7h16M4 12h16M4 17h16"/></symbol>
  <symbol id="cmm-icon-close" viewBox="0 0 24 24"><path d="m6 6 12 12M18 6 6 18"/></symbol>
  <symbol id="cmm-icon-home" viewBox="0 0 24 24"><path d="m3 11 9-8 9 8M5 10v10h14V10M9 20v-6h6v6"/></symbol>
  <symbol id="cmm-icon-membership" viewBox="0 0 24 24"><circle cx="9" cy="8" r="3"/><path d="M3 20v-2a6 6 0 0 1 12 0v2M17 11a3 3 0 0 0 0-6M17 14a5 5 0 0 1 4 5v1"/></symbol>
  <symbol id="cmm-icon-medical" viewBox="0 0 24 24"><path d="M9 3h6v6h6v6H15v6H9v-6H3V9h6z"/></symbol>
  <symbol id="cmm-icon-document" viewBox="0 0 24 24"><path d="M6 3h8l4 4v14H6zM14 3v5h4M9 12h6M9 16h6"/></symbol>
  <symbol id="cmm-icon-giving" viewBox="0 0 24 24"><path d="m12 9-3.4-3.2a2.2 2.2 0 0 1 3.1-3.1l.3.3.3-.3a2.2 2.2 0 0 1 3.1 3.1zM3 14h3l3.4-2.6a3 3 0 0 1 1.8-.6H14a2 2 0 0 1 0 4h-3M6 14l4.2 4.2h4.2L21 12a2 2 0 0 0-2.8-2.8L14.5 13M3 13v8h3v-7"/></symbol>
  <symbol id="cmm-icon-account" viewBox="0 0 24 24"><circle cx="12" cy="8" r="4"/><path d="M4 21a8 8 0 0 1 16 0"/></symbol>
  <symbol id="cmm-icon-security" viewBox="0 0 24 24"><path d="M12 3 4 6v5c0 5 3.4 8.5 8 10 4.6-1.5 8-5 8-10V6zM9 12l2 2 4-5"/></symbol>
  <symbol id="cmm-icon-help" viewBox="0 0 24 24"><circle cx="12" cy="12" r="9"/><path d="M9.5 9a2.5 2.5 0 1 1 4.2 1.8c-1 .8-1.7 1.3-1.7 2.7M12 17h.01"/></symbol>
  <symbol id="cmm-icon-bell" viewBox="0 0 24 24"><path d="M18 9a6 6 0 0 0-12 0c0 7-3 7-3 9h18c0-2-3-2-3-9M10 21h4"/></symbol>
  <symbol id="cmm-icon-chevron" viewBox="0 0 24 24"><path d="m9 6 6 6-6 6"/></symbol>
  <symbol id="cmm-icon-plus" viewBox="0 0 24 24"><path d="M12 5v14M5 12h14"/></symbol>
  <symbol id="cmm-icon-restore" viewBox="0 0 24 24"><path d="M4 4v6h6M5.5 9a8 8 0 1 1-.5 5"/></symbol>
  <symbol id="cmm-icon-alert-circle" viewBox="0 0 24 24"><circle cx="12" cy="12" r="9"/><path d="M12 7.5v6M12 17h.01"/></symbol>
  <symbol id="cmm-icon-upload" viewBox="0 0 24 24"><path d="M12 16V4M7 9l5-5 5 5M4 15v5h16v-5"/></symbol>
  <symbol id="cmm-icon-payment" viewBox="0 0 24 24"><rect x="3" y="5" width="18" height="14" rx="2"/><path d="M3 10h18M7 15h4"/></symbol>
  <symbol id="cmm-icon-external" viewBox="0 0 24 24"><path d="M14 4h6v6M20 4 11 13M18 13v6a1 1 0 0 1-1 1H5a1 1 0 0 1-1-1V7a1 1 0 0 1 1-1h6"/></symbol>
  <symbol id="cmm-icon-signout" viewBox="0 0 24 24"><path d="M10 4H4v16h6M14 8l4 4-4 4M8 12h10"/></symbol>
</svg>
